<svg width="336" height="87" viewBox="0 0 336 87" fill="none" xmlns="http://www.w3.org/2000/svg">
<path d="M86.6016 59H71.0859C70.9609 59 70.8984 58.9219 70.8984 58.7656L70.9453 25.8359C70.9453 25.6797 71.0234 25.6016 71.1797 25.6016H76.5234C76.6797 25.6016 76.7578 25.6797 76.7578 25.8359L76.7109 53.0938H86.6016C86.7578 53.0938 86.8359 53.1719 86.8359 53.3281V58.7656C86.8359 58.9219 86.7578 59 86.6016 59ZM111.968 59H106.531C106.375 59 106.297 58.9219 106.297 58.7656L106.343 25.7891C106.343 25.6641 106.406 25.6016 106.531 25.6016H111.922C112.047 25.6016 112.109 25.6641 112.109 25.7891L112.156 58.7656C112.156 58.9219 112.093 59 111.968 59ZM143.898 59H138.085C137.945 59 137.867 58.9219 137.851 58.7656L131.218 25.7891C131.187 25.6641 131.249 25.6016 131.406 25.6016H136.843C136.968 25.6016 137.046 25.6641 137.077 25.7891L141.015 47.7734L144.859 25.7891C144.89 25.6641 144.968 25.6016 145.093 25.6016H150.46C150.632 25.6016 150.695 25.6641 150.648 25.7891L144.132 58.7656C144.117 58.9219 144.038 59 143.898 59ZM185.483 59H169.968C169.843 59 169.78 58.9219 169.78 58.7656L169.827 25.7891C169.827 25.6641 169.89 25.6016 170.015 25.6016H185.437C185.562 25.6016 185.624 25.6797 185.624 25.8359V31.2031C185.624 31.3281 185.562 31.3906 185.437 31.3906H175.593V38.8906H185.437C185.562 38.8906 185.624 38.9531 185.624 39.0781L185.671 44.5156C185.671 44.6406 185.608 44.7031 185.483 44.7031H175.593V53.0938H185.483C185.608 53.0938 185.671 53.1719 185.671 53.3281V58.8125C185.671 58.9375 185.608 59 185.483 59ZM211.882 59H206.491C206.335 59 206.257 58.9219 206.257 58.7656L206.35 25.7891C206.35 25.6641 206.413 25.6016 206.538 25.6016H215.772C218.71 25.6016 221.03 26.5 222.733 28.2969C224.452 30.0781 225.311 32.5078 225.311 35.5859C225.311 37.8359 224.866 39.7969 223.975 41.4688C223.069 43.125 221.897 44.4062 220.46 45.3125C219.022 46.2188 217.46 46.6719 215.772 46.6719H212.116V58.7656C212.116 58.9219 212.038 59 211.882 59ZM215.772 31.2969L212.116 31.3438V40.8594H215.772C216.788 40.8594 217.671 40.375 218.421 39.4062C219.171 38.4219 219.546 37.1484 219.546 35.5859C219.546 34.3359 219.21 33.3125 218.538 32.5156C217.866 31.7031 216.944 31.2969 215.772 31.2969ZM253.397 59.4688C251.694 59.4688 250.123 59.0312 248.686 58.1562C247.264 57.2812 246.116 56.1172 245.241 54.6641C244.381 53.1953 243.952 51.5859 243.952 49.8359L243.998 34.625C243.998 32.8438 244.428 31.2422 245.288 29.8203C246.131 28.3828 247.272 27.2344 248.709 26.375C250.147 25.5 251.709 25.0625 253.397 25.0625C255.147 25.0625 256.717 25.4922 258.108 26.3516C259.514 27.2109 260.639 28.3672 261.483 29.8203C262.342 31.2578 262.772 32.8594 262.772 34.625L262.819 49.8359C262.819 51.5859 262.397 53.1875 261.553 54.6406C260.694 56.1094 259.553 57.2812 258.131 58.1562C256.709 59.0312 255.131 59.4688 253.397 59.4688ZM253.397 53.6797C254.366 53.6797 255.209 53.2891 255.928 52.5078C256.647 51.7109 257.006 50.8203 257.006 49.8359L256.959 34.625C256.959 33.5625 256.623 32.6641 255.952 31.9297C255.28 31.1953 254.428 30.8281 253.397 30.8281C252.413 30.8281 251.569 31.1875 250.866 31.9062C250.163 32.625 249.811 33.5312 249.811 34.625V49.8359C249.811 50.8828 250.163 51.7891 250.866 52.5547C251.569 53.3047 252.413 53.6797 253.397 53.6797ZM298.475 59H282.959C282.834 59 282.772 58.9219 282.772 58.7656L282.818 25.8359C282.818 25.6797 282.897 25.6016 283.053 25.6016H288.397C288.553 25.6016 288.631 25.6797 288.631 25.8359L288.584 53.0938H298.475C298.631 53.0938 298.709 53.1719 298.709 53.3281V58.7656C298.709 58.9219 298.631 59 298.475 59ZM333.873 59H318.357C318.232 59 318.17 58.9219 318.17 58.7656L318.217 25.8359C318.217 25.6797 318.295 25.6016 318.451 25.6016H323.795C323.951 25.6016 324.029 25.6797 324.029 25.8359L323.982 53.0938H333.873C334.029 53.0938 334.107 53.1719 334.107 53.3281V58.7656C334.107 58.9219 334.029 59 333.873 59Z" fill="#ffffff"/>
<path d="M47.9375 37.9688C47.9375 43.258 46.2205 48.1439 43.3281 52.108L57.9168 66.7082C59.3572 68.1486 59.3572 70.4879 57.9168 71.9283C56.4764 73.3688 54.1371 73.3688 52.6967 71.9283L38.108 57.3281C34.1439 60.232 29.258 61.9375 23.9688 61.9375C10.7283 61.9375 0 51.2092 0 37.9688C0 24.7283 10.7283 14 23.9688 14C37.2092 14 47.9375 24.7283 47.9375 37.9688ZM11.9844 38.8906V46.2656C11.9844 47.7982 13.2174 49.0312 14.75 49.0312C16.2826 49.0312 17.5156 47.7982 17.5156 46.2656V38.8906C17.5156 37.358 16.2826 36.125 14.75 36.125C13.2174 36.125 11.9844 37.358 11.9844 38.8906ZM21.2031 27.8281V46.2656C21.2031 47.7982 22.4361 49.0312 23.9688 49.0312C25.5014 49.0312 26.7344 47.7982 26.7344 46.2656V27.8281C26.7344 26.2955 25.5014 25.0625 23.9688 25.0625C22.4361 25.0625 21.2031 26.2955 21.2031 27.8281ZM30.4219 35.2031V46.2656C30.4219 47.7982 31.6549 49.0312 33.1875 49.0312C34.7201 49.0312 35.9531 47.7982 35.9531 46.2656V35.2031C35.9531 33.6705 34.7201 32.4375 33.1875 32.4375C31.6549 32.4375 30.4219 33.6705 30.4219 35.2031Z" fill="#ffffff"/>
</svg>
